<svg xmlns="http://www.w3.org/2000/svg" viewBox="0 0 164.71 46.26"><defs><style>.cls-1{fill:#114369;}.cls-2{fill:#e34c25;}.cls-3{fill:#231f20;}</style></defs><g id="Layer_2" data-name="Layer 2"><g id="Layer_1-2" data-name="Layer 1"><path class="cls-1" d="M21.85.27H1.27A1.27,1.27,0,0,0,0,1.54V34A1.27,1.27,0,0,0,1.27,35.3h14V12.5a1.28,1.28,0,0,1,1.28-1.28h6.62V1.54A1.27,1.27,0,0,0,21.85.27Zm-.32,6.22a1.45,1.45,0,0,1-1.45,1.45H18.27a1.45,1.45,0,0,1-1.46-1.45V5a1.45,1.45,0,0,1,1.46-1.45h1.81A1.45,1.45,0,0,1,21.53,5Z"/><path class="cls-1" d="M37.07,11.22H23.12V34a1.27,1.27,0,0,1-1.27,1.27H15.22V45a1.27,1.27,0,0,0,1.28,1.27H37.07A1.27,1.27,0,0,0,38.35,45V12.5A1.28,1.28,0,0,0,37.07,11.22ZM21.53,41.53A1.45,1.45,0,0,1,20.08,43H18.27a1.45,1.45,0,0,1-1.46-1.45V40a1.45,1.45,0,0,1,1.46-1.45h1.81A1.45,1.45,0,0,1,21.53,40Z"/><path class="cls-2" d="M51.84,1.77V3.55a1.76,1.76,0,0,1-1.77,1.76h-2.3A1.76,1.76,0,0,1,46,3.55V1.77A1.77,1.77,0,0,1,47.77,0h2.3A1.77,1.77,0,0,1,51.84,1.77Zm0,6.22V28.54A1.42,1.42,0,0,1,50.41,30h-3A1.42,1.42,0,0,1,46,28.54V9.37a1.43,1.43,0,0,1,1.42-1.43h4.37A0,0,0,0,1,51.84,8Z"/><path class="cls-3" d="M59.11.17H80.8v2.4H71.36V30H68.55V2.57H59.11Z"/><path class="cls-3" d="M90.77,30H88.29V8.53h2.48v4h.08A7.21,7.21,0,0,1,93.52,9a8.17,8.17,0,0,1,4.32-1v2.69a7.2,7.2,0,0,0-3.47.66,5.68,5.68,0,0,0-2.17,1.91A7.53,7.53,0,0,0,91.08,16a18,18,0,0,0-.31,3.41Z"/><path class="cls-3" d="M120.19,8.53h2.48V30h-2.48V27c-.33.39-.7.79-1.12,1.2a7.79,7.79,0,0,1-1.43,1.14,7.6,7.6,0,0,1-1.88.87,7.82,7.82,0,0,1-2.48.35,9.4,9.4,0,0,1-3.6-.6,5.81,5.81,0,0,1-2.34-1.67,6.64,6.64,0,0,1-1.28-2.51,11.79,11.79,0,0,1-.39-3.12V8.53h2.48V22.6a6.28,6.28,0,0,0,1.28,4.24,5.34,5.34,0,0,0,4.22,1.47,6.14,6.14,0,0,0,2.75-.6,5.67,5.67,0,0,0,2-1.68,7.88,7.88,0,0,0,1.28-2.56,11,11,0,0,0,.46-3.27Z"/><path class="cls-3" d="M133.84,23.26a6.35,6.35,0,0,0,2.09,3.91,7.09,7.09,0,0,0,4.33,1.14,7.51,7.51,0,0,0,2.36-.33,4.79,4.79,0,0,0,1.63-.89,3.75,3.75,0,0,0,1-1.26,3.49,3.49,0,0,0,.34-1.49,2.74,2.74,0,0,0-1-2.34A7.59,7.59,0,0,0,142,20.8a33.85,33.85,0,0,0-3.31-.75,15.33,15.33,0,0,1-3.31-.93,6.56,6.56,0,0,1-2.55-1.78,4.78,4.78,0,0,1-1-3.27,5.57,5.57,0,0,1,2-4.4A8.18,8.18,0,0,1,139.35,8,9.53,9.53,0,0,1,145,9.5a7.13,7.13,0,0,1,2.62,5.2H145.1a4.64,4.64,0,0,0-1.88-3.5,7,7,0,0,0-3.91-1,5.52,5.52,0,0,0-3.6,1,3.25,3.25,0,0,0-1.24,2.67,2.59,2.59,0,0,0,1,2.21A8.13,8.13,0,0,0,138,17.32c1,.32,2.13.6,3.31.85a16,16,0,0,1,3.31,1.06,7.18,7.18,0,0,1,2.55,1.84,4.72,4.72,0,0,1,1,3.23,5.47,5.47,0,0,1-.66,2.71,5.77,5.77,0,0,1-1.82,2A8.29,8.29,0,0,1,143,30.15a14.71,14.71,0,0,1-3.5.39A9.27,9.27,0,0,1,136.1,30,7.18,7.18,0,0,1,132,26.12a8.48,8.48,0,0,1-.66-2.86Z"/><path class="cls-3" d="M164.34,30.05a12.34,12.34,0,0,0-1.2.29,6.49,6.49,0,0,1-1.65.2,4,4,0,0,1-2.84-.93,4.52,4.52,0,0,1-1-3.33V10.6h-3V8.53h3v-6h2.48v6h4V10.6h-4V25.29c0,.52,0,1,0,1.36a2.33,2.33,0,0,0,.25,1,1.21,1.21,0,0,0,.64.53,3.56,3.56,0,0,0,1.22.17,7.12,7.12,0,0,0,1-.08c.34-.06.68-.13,1-.21Z"/><path class="cls-3" d="M46.67,37.46h3.86v.68H47.42v1.7h2.74v.66H47.42V43h-.75Z"/><path class="cls-3" d="M65.68,37.46h.77V43h-.77Z"/><path class="cls-3" d="M81.84,37.46h.89L85.51,42v-4.5h.72V43h-.85l-2.82-4.49V43h-.72Z"/><path class="cls-3" d="M103.24,37.46h.85l2,5.57h-.83l-.57-1.67h-2.2l-.6,1.67h-.78Zm1.24,3.29-.84-2.46-.9,2.46Z"/><path class="cls-3" d="M121,37.46h.88l2.78,4.5v-4.5h.72V43h-.85l-2.81-4.49V43H121Z"/><path class="cls-3" d="M144.7,37.87a2,2,0,0,1,.64,1.26h-.74a1.48,1.48,0,0,0-.49-.85,1.53,1.53,0,0,0-1-.31,1.63,1.63,0,0,0-1.3.57,3.23,3.23,0,0,0-.05,3.37,1.57,1.57,0,0,0,1.34.61,1.41,1.41,0,0,0,1.24-.64,2.33,2.33,0,0,0,.34-.89h.74a2.52,2.52,0,0,1-.65,1.47,2.25,2.25,0,0,1-1.76.72,2.36,2.36,0,0,1-1.62-.59,3.67,3.67,0,0,1-.21-4.42,2.35,2.35,0,0,1,1.92-.86A2.27,2.27,0,0,1,144.7,37.87Z"/><path class="cls-3" d="M160.61,37.46h4v.68h-3.31v1.7h3.06v.64h-3.06v1.89h3.37V43h-4.1Z"/></g></g></svg>